<svg xmlns="http://www.w3.org/2000/svg" viewBox="0 0 50 51"><path d="M23 1h4c12.7 0 23 10.3 23 23v4c0 12.7-10.3 23-23 23h-4C10.3 51 0 40.7 0 28v-4C0 11.3 10.3 1 23 1z" fill="#ffc400"/><path d="M24.066 47c-3.1 0-6.1-.6-9-1.8-2.7-1.2-5.2-2.8-7.3-4.9-2.1-2.1-3.7-4.6-4.9-7.3-1.2-2.9-1.8-5.9-1.8-9s.6-6.1 1.8-9c1.2-2.7 2.8-5.2 4.9-7.3 2.1-2.1 4.6-3.7 7.3-4.9 2.9-1.2 5.9-1.8 9-1.8s6.1.6 9 1.8c2.7 1.2 5.2 2.8 7.3 4.9 2.1 2.1 3.8 4.6 4.9 7.3 1.2 2.8 1.8 5.8 1.8 9s-.6 6.1-1.8 9c-1.2 2.7-2.8 5.2-4.9 7.3-2.1 2.1-4.6 3.8-7.3 4.9-2.9 1.2-5.9 1.8-9 1.8z" fill="#fff"/><path d="M24.066 2c-3 0-5.9.6-8.6 1.7-2.6 1.1-5 2.7-7 4.7s-3.6 4.4-4.7 7c-1.1 2.7-1.7 5.6-1.7 8.6s.6 5.9 1.7 8.6c1.1 2.6 2.7 5 4.7 7s4.4 3.6 7 4.7c2.7 1.1 5.6 1.7 8.6 1.7s5.9-.6 8.6-1.7c2.6-1.1 5-2.7 7-4.7s3.6-4.4 4.7-7c1.1-2.7 1.7-5.6 1.7-8.6s-.6-5.9-1.7-8.6c-1.1-2.6-2.7-5-4.7-7s-4.4-3.6-7-4.7c-2.7-1.1-5.6-1.7-8.6-1.7m0-2c13.3 0 24 10.7 24 24s-10.7 24-24 24-24-10.7-24-24 10.7-24 24-24z" fill="#313131"/><path fill="#ffc400" d="M47 23h2v5h-2z"/><path fill="#fff" d="M45 23h2v5h-2z"/><path d="M47 22c.6 0 1 .4 1 1s-.4 1-1 1-1-.4-1-1 .4-1 1-1zM46.7 27c.6 0 1 .4 1 1s-.4 1-1 1-1-.4-1-1 .4-1 1-1z" fill="#313131"/><g><path d="M29.666 15.4c1.3 1.1 1.9 2.7 1.9 4.6 0 1.6-.4 2.9-1.2 3.9-.3.3-1.2 1.2-2.8 2.5-.6.4-1 1-1.3 1.6-.3.6-.5 1.3-.5 2.1v.4h-3.7v-.4c0-1.2.2-2.3.6-3.1.4-.9 1.2-1.8 2.2-2.7 1-.9 1.7-1.5 1.9-1.8.6-.7.9-1.5.9-2.3 0-1.1-.3-1.9-.9-2.5-.6-.6-1.5-.9-2.6-.9-1.4 0-2.4.4-3 1.3-.5.7-.8 1.8-.8 3.2h-3.5c0-2.4.7-4.2 2.1-5.6 1.4-1.3 3.2-2 5.6-2 2.1 0 3.8.5 5.1 1.7zm-3.9 17.4c.4.4.7 1 .7 1.7s-.3 1.3-.7 1.8c-.5.4-1.1.7-1.8.7s-1.3-.3-1.7-.7c-.5-.4-.7-1-.7-1.7s.2-1.3.7-1.7c.4-.4 1-.7 1.7-.7s1.3.2 1.8.6z" fill="#d3d3d3"/><path d="M28.066 14.8c1.1 1 1.7 2.4 1.7 4.2 0 1.4-.4 2.5-1.1 3.5-.3.4-1.1 1.1-2.5 2.3-.7.5-1.1 1.1-1.4 1.6-.4.7-.6 1.4-.6 2.2v.7h-2.4v-.7c0-1.1.2-2 .7-2.9.4-.8 1.1-1.6 2-2.4 1-.9 1.6-1.5 2-1.9.6-.8.9-1.5.9-2.4 0-1.2-.4-2.1-1-2.8-.7-.7-1.7-1-2.9-1-1.5 0-2.6.5-3.3 1.5-.7.8-1 2-1 3.5h-2.6c0-2.1.6-3.8 1.8-5 1.2-1.3 2.9-2 5-2 2 0 3.5.5 4.7 1.6zm-3.7 17.1c.3.3.5.8.5 1.3s-.2 1-.5 1.3c-.4.3-.8.5-1.3.5s-.9-.2-1.3-.5c-.4-.4-.5-.8-.5-1.3s.2-.9.5-1.3c.4-.4.8-.5 1.3-.5.4 0 .9.2 1.3.5z" fill="#313131"/></g></svg>
