<svg xmlns="http://www.w3.org/2000/svg" width="50" height="51" viewBox="0 0 50 51"><g data-name="Group 324" transform="translate(-52 -500)"><rect data-name="Rectangle 690" width="50" height="50" rx="23" transform="translate(52 501)" fill="#ffc400"/><g data-name="Path 109" fill="#fff"><path d="M76.066 547c-3.10541916 0-6.1174202-.60797882-8.95232964-1.80704117-2.7386999-1.1583786-5.19852066-2.81689834-7.3111205-4.9295082-2.11260987-2.11260224-3.77112985-4.57242204-4.92950988-7.31111909C53.67398 530.1174202 53.066 527.10541916 53.066 524c0-3.10541916.60798001-6.1174202 1.80703998-8.95232964 1.15838003-2.7386999 2.81690001-5.19852066 4.92950987-7.3111205 2.11259985-2.11260987 4.5724206-3.77112985 7.31112051-4.92950988C69.9485798 501.60798 72.96058084 501 76.066 501c3.10541916 0 6.1174202.60798001 8.95233154 1.80703998 2.73869705 1.15838003 5.19851685 2.81690001 7.31111908 4.92950987 2.11260987 2.11259985 3.77112961 4.5724206 4.92950821 7.31112051C98.45802118 517.8825798 99.066 520.89458084 99.066 524c0 3.10541916-.60797882 6.1174202-1.80704117 8.95233154-1.1583786 2.73869705-2.81689834 5.19851685-4.9295082 7.31111908-2.11260224 2.11260987-4.57242204 3.77112961-7.31111909 4.92950821C82.1834202 546.39202118 79.17141916 547 76.066 547z"/><path d="M76.066 502c-2.97085953 0-5.85180092.58140182-8.56277847 1.72805023-2.61950302 1.10795975-4.97248078 2.69451142-6.99357224 4.71559906-2.02108764 2.02109146-3.60763931 4.37406922-4.71559906 6.99357224C54.64740183 518.14819908 54.066 521.02914047 54.066 524c0 2.97085953.58140182 5.85180092 1.72805023 8.56278229 1.10795975 2.6194992 2.69451142 4.97247696 4.71559906 6.99356842 2.02109146 2.02108764 4.37406922 3.60763931 6.99357224 4.71559906C70.21419908 545.41860199 73.09514047 546 76.066 546c2.97085953 0 5.85180092-.58139801 8.56278229-1.72805023 2.6194992-1.10795975 4.97247696-2.69451142 6.99356842-4.71559906 2.02108764-2.02109146 3.60763931-4.37406922 4.71559906-6.99356842C97.48460199 529.85180092 98.066 526.97085953 98.066 524c0-2.97085953-.58139801-5.85180092-1.72805023-8.56277847-1.10795975-2.61950302-2.69451142-4.97248078-4.71559906-6.99357224-2.02109146-2.02108764-4.37406922-3.60763931-6.99356842-4.71559906C81.91780092 502.58140183 79.03685953 502 76.066 502m0-2c13.2548294 0 24 10.7451706 24 24s-10.7451706 24-24 24-24-10.7451706-24-24 10.7451706-24 24-24z" fill="#313131"/></g><path data-name="Rectangle 692" fill="#ffc400" d="M99 523h2v5h-2z"/><path data-name="Rectangle 691" fill="#fff" d="M97 523h2v5h-2z"/><rect data-name="Rectangle 693" width="2" height="2" rx="1" transform="translate(98 522)" fill="#313131"/><rect data-name="Rectangle 694" width="2" height="2" rx="1" transform="translate(97.66 527)" fill="#313131"/><g data-name="Group 299"><text data-name="？" transform="translate(60 537)" fill="#d3d3d3" font-size="32" font-family="PingFangTC-Semibold, PingFang TC" font-weight="600"><tspan x="0" y="0">？</tspan></text><text data-name="？" transform="translate(60 535)" fill="#313131" font-size="30" font-family="PingFangTC-Regular, PingFang TC"><tspan x="0" y="0">？</tspan></text></g></g></svg>