<?xml version="1.0" encoding="utf-8"?>
<!-- Generator: Adobe Illustrator 20.1.0, SVG Export Plug-In . SVG Version: 6.00 Build 0)  -->
<svg version="1.1" id="圖層_1" xmlns="http://www.w3.org/2000/svg" xmlns:xlink="http://www.w3.org/1999/xlink" x="0px" y="0px"
	 viewBox="0 0 26.1 26" style="enable-background:new 0 0 26.1 26;" xml:space="preserve">
<g>
	<circle style="fill:none;" cx="13.1" cy="13" r="13"/>
</g>
<path style="fill:#313131;" d="M13.1,0C8.7,0,4.8,2.2,2.5,5.6c0,0-0.1,0.1-0.1,0.1c0,0,0,0,0,0.1l0,0C2.2,6,2.2,6.2,2.2,6.5
	C2.2,7.3,2.8,8,3.7,8c0.5,0,1-0.3,1.2-0.7l0,0C6.7,4.7,9.7,3,13.1,3c5.5,0,10,4.5,10,10c0,5.5-4.5,10-10,10c-2.9,0-5.4-1.2-7.3-3.2
	l2.2-1.1c0.2-0.1,0.3-0.2,0.4-0.4c0.3-0.5,0.1-1.1-0.3-1.4l-6.1-3.7c-0.1-0.1-0.3-0.1-0.4-0.1c-0.6,0-1,0.4-1.1,0.9L0,21.1
	c0,0.2,0,0.4,0.1,0.5c0.3,0.5,0.9,0.7,1.3,0.4l1.7-0.8c2.4,2.9,6,4.8,10,4.8c7.2,0,13-5.8,13-13C26.1,5.8,20.3,0,13.1,0z"/>
</svg>
