<?xml version="1.0" encoding="utf-8"?>
<!-- Generator: Adobe Illustrator 20.1.0, SVG Export Plug-In . SVG Version: 6.00 Build 0)  -->
<svg version="1.1" id="圖層_1" xmlns="http://www.w3.org/2000/svg" xmlns:xlink="http://www.w3.org/1999/xlink" x="0px" y="0px"
 viewBox="0 0 50.7 61" style="enable-background:new 0 0 50.7 61;" xml:space="preserve">
<g id="Group_362" transform="translate(-18924 -14515.57)">
<g id="Rectangle_869" transform="translate(18924 14550)">
<g>
<path style="fill:#FF4848;" d="M24.2-25.4h2.4c13.3,0,24.2,10.8,24.2,24.2v8.1c0,1.7-1.4,3.2-3.2,3.2H3.2C1.4,10.1,0,8.6,0,6.9
v-8.1C0-14.6,10.8-25.4,24.2-25.4z"/>
</g>
<g>
<path style="fill:#313131;" d="M47.5,10.1H3.2C1.4,10.1,0,8.6,0,6.9v-8.1c0-13.3,10.8-24.2,24.2-24.2h2.4
c13.3,0,24.2,10.8,24.2,24.2v8.1C50.7,8.6,49.3,10.1,47.5,10.1z M24.2-24.3C11.4-24.3,1.1-14,1.1-1.2v8.1C1.1,8.1,2,9,3.2,9h44.4
c1.2,0,2.1-0.9,2.1-2.1v-8.1c0-12.7-10.4-23.1-23.1-23.1C26.6-24.3,24.2-24.3,24.2-24.3z"/>
</g>
</g>
<g id="Path_123" transform="translate(18948 14629)">
<g>
<path style="fill:#FFE7C1;" d="M4.9-52.9H1.8h-3.7c-2.1,0-4.1-0.4-5.9-1.2c-0.9-0.4-1.8-0.9-2.6-1.4c-0.8-0.5-1.6-1.2-2.3-1.9
s-1.3-1.4-1.9-2.3c-0.5-0.8-1-1.7-1.4-2.6c-0.8-1.9-1.2-3.9-1.2-5.9v-15h37.3v15c0,2.1-0.4,4.1-1.2,5.9c-0.4,0.9-0.9,1.8-1.4,2.6
s-1.2,1.6-1.9,2.3c-0.7,0.7-1.4,1.3-2.3,1.9c-0.8,0.5-1.7,1-2.6,1.4C8.9-53.3,6.9-52.9,4.9-52.9z"/>
</g>
<g>
<path style="fill:#313131;" d="M-16.6-82.6v14.4c0,2,0.4,3.9,1.2,5.7c0.4,0.9,0.8,1.7,1.4,2.5c0.5,0.8,1.1,1.5,1.8,2.2
s1.4,1.3,2.2,1.8s1.6,1,2.5,1.4c1.8,0.8,3.7,1.2,5.7,1.2h3.7H5c2,0,3.9-0.4,5.7-1.2c0.9-0.4,1.7-0.8,2.5-1.4
c0.8-0.5,1.5-1.1,2.2-1.8s1.3-1.4,1.8-2.2s1-1.6,1.4-2.5c0.8-1.8,1.2-3.7,1.2-5.7v-14.4H-16.6 M-17.7-83.6h38.3v15.5
c0,8.7-7.1,15.8-15.8,15.8h-3h-3.7c-8.7,0-15.8-7.1-15.8-15.8V-83.6z"/>
</g>
</g>
<g id="Path_125">
<path style="fill:#313131;" d="M18951.6,14574.3c-0.8,0-1.6-0.4-2.1-1.1c-0.3,0.5-1,1.1-2.4,1.1c-2.1,0-2.8-1.3-2.8-2
c0-0.2,0.1-0.4,0.3-0.4c0.2,0,0.4,0.1,0.4,0.3c0,0.1,0.2,1.3,2.1,1.3c1.8,0,2-1.2,2-1.3c0-0.2,0.2-0.3,0.4-0.4s0.4,0.1,0.4,0.3
c0.2,0.8,1,1.4,1.8,1.4l0,0c0.9,0,1.7-0.6,2-1.4c0.1-0.2,0.3-0.3,0.5-0.2s0.3,0.3,0.2,0.5c-0.4,1.2-1.5,1.9-2.7,1.9
C18951.7,14574.3,18951.7,14574.3,18951.6,14574.3L18951.6,14574.3z"/>
</g>
<g id="Rectangle_879">
<path style="fill:#313131;" d="M18948.7,14562.4h1.1c0.7,0,1.3,0.6,1.3,1.3v1.6c0,0.7-0.6,1.3-1.3,1.3h-1.1
c-0.7,0-1.3-0.6-1.3-1.3v-1.6C18947.4,14563,18948,14562.4,18948.7,14562.4z"/>
</g>
<g id="Line_11">
<path style="fill:#313131;" d="M18949.3,14571.3c-0.2,0-0.4-0.2-0.4-0.4v-3.4c0-0.2,0.2-0.4,0.4-0.4s0.4,0.2,0.4,0.4v3.4
C18949.7,14571.2,18949.6,14571.3,18949.3,14571.3z"/>
</g>
<g id="Rectangle_884">
<path style="fill:#313131;" d="M18936.3,14556.6h2.6c0.4,0,0.8,0.4,0.8,0.8l0,0c0,0.4-0.4,0.8-0.8,0.8h-2.6
c-0.4,0-0.8-0.4-0.8-0.8l0,0C18935.6,14557,18935.9,14556.6,18936.3,14556.6z"/>
</g>
<g id="Rectangle_870">
<path style="fill:#313131;" d="M18960.2,14556.6h2.6c0.4,0,0.8,0.4,0.8,0.8l0,0c0,0.4-0.4,0.8-0.8,0.8h-2.6
c-0.4,0-0.8-0.4-0.8-0.8l0,0C18959.4,14557,18959.8,14556.6,18960.2,14556.6z"/>
</g>
<g id="Subtraction_61">
<path style="fill:#FFCE80;" d="M18957.7,14574.7L18957.7,14574.7c1.5-1.6,4.1-4.6,4.6-5.4c0.8-1.2,1.3-2.5,1.7-3.9
c0.4-1.4,0.6-2.8,0.6-4.3v-15.8h2.9v15.3C18967.6,14567,18963.7,14572.6,18957.7,14574.7z"/>
</g>
<g id="Subtraction_62" transform="translate(18947.914 14615)">
<g>
<path style="fill:#FF4848;" d="M7.9-61.5H-4.8c-1.5,0-3-0.3-4.4-0.8s-2.7-1.2-3.8-2.1s-2.1-2-2.9-3.2c-0.8-1.2-1.4-2.6-1.8-4
l-0.2-0.9l0.9,0.2c4.7,1.2,11.7,2.6,18.8,2.6c7,0,14-1.4,18.6-2.5l0.9-0.2l-0.2,0.9c-0.4,1.4-1,2.7-1.8,4
c-0.8,1.2-1.8,2.3-2.9,3.1c-1.2,0.9-2.4,1.6-3.8,2.1C10.9-61.8,9.4-61.5,7.9-61.5z"/>
</g>
<g>
<path style="fill:#313131;" d="M7.9-62c1.5,0,2.9-0.2,4.3-0.7c1.3-0.5,2.6-1.1,3.7-2c1.1-0.9,2-1.9,2.8-3
c0.8-1.2,1.4-2.5,1.7-3.8C15.7-70.3,8.7-69,1.6-69s-14.2-1.4-18.9-2.6c0.4,1.4,0.9,2.7,1.7,3.8c0.8,1.2,1.7,2.2,2.8,3
c1.1,0.9,2.3,1.5,3.7,2s2.8,0.7,4.3,0.7L7.9-62 M7.9-61H-4.8c-1.6,0-3.1-0.3-4.6-0.8c-1.4-0.5-2.8-1.2-4-2.2
c-1.2-0.9-2.2-2-3.1-3.3c-0.9-1.3-1.5-2.7-1.9-4.1c-0.1-0.4,0-0.7,0.3-1c0.2-0.2,0.5-0.3,0.7-0.3c0.1,0,0.2,0,0.3,0
c4.6,1.2,11.7,2.5,18.7,2.5c6.9,0,13.9-1.4,18.5-2.5c0.1,0,0.2,0,0.3,0c0.3,0,0.6,0.1,0.8,0.3c0.3,0.3,0.4,0.6,0.3,1
c-0.4,1.5-1,2.9-1.9,4.1c-0.8,1.2-1.9,2.3-3.1,3.3c-1.2,0.9-2.5,1.7-4,2.2C11-61.2,9.5-61,7.9-61z"/>
</g>
</g>
<g id="Subtraction_65">
<path style="fill:#CC0909;" d="M18956.4,14552.9L18956.4,14552.9c0.5-0.1,1-0.2,1.5-0.4c1.3-0.4,2.5-1,3.7-1.8
c1.1-0.8,2-1.7,2.7-2.9c0.7-1.1,1.3-2.4,1.5-3.8c0.2-0.3,0.9-0.4,1.5-0.5l0,0c0.3,0,0.6-0.1,0.8-0.1h0.1c-0.4,1.3-1,2.6-1.8,3.8
c-0.8,1.1-1.7,2.2-2.8,3c-1.1,0.8-2.3,1.5-3.6,2C18958.9,14552.7,18957.7,14552.9,18956.4,14552.9z"/>
</g>
<g id="Ellipse_68">
<circle style="fill:#FFFFFF;" cx="18934.4" cy="14554.4" r="1.4"/>
</g>
<g id="Rectangle_880">
<path style="fill:#313131;" d="M18970.2,14538.5h1.8c0.3,0,0.5,0.2,0.5,0.5l0,0c0,0.3-0.2,0.5-0.5,0.5h-1.8
c-0.3,0-0.5-0.2-0.5-0.5l0,0C18969.7,14538.8,18969.9,14538.5,18970.2,14538.5z"/>
</g>
<g id="Rectangle_881">
<path style="fill:#313131;" d="M18966,14544.8h1.6c0.3,0,0.5,0.2,0.5,0.5l0,0c0,0.3-0.2,0.5-0.5,0.5h-1.6c-0.3,0-0.5-0.2-0.5-0.5
l0,0C18965.5,14545.1,18965.7,14544.8,18966,14544.8z"/>
</g>
<g id="Rectangle_875">
<path style="fill:#313131;" d="M18968.6,14553.5h5.5c0.3,0,0.5,0.2,0.5,0.5l0,0c0,0.3-0.2,0.5-0.5,0.5h-5.5
c-0.3,0-0.5-0.2-0.5-0.5l0,0C18968.1,14553.7,18968.3,14553.5,18968.6,14553.5z"/>
</g>
<g id="Rectangle_876">
<path style="fill:#313131;" d="M18968.1,14548.8h6c0.3,0,0.5,0.2,0.5,0.5l0,0c0,0.3-0.2,0.5-0.5,0.5h-6c-0.3,0-0.5-0.2-0.5-0.5
l0,0C18967.6,14549,18967.8,14548.8,18968.1,14548.8z"/>
</g>
<g id="Rectangle_885">
<path style="fill:#313131;" d="M18924.5,14553.5h6c0.3,0,0.5,0.2,0.5,0.5l0,0c0,0.3-0.2,0.5-0.5,0.5h-6c-0.3,0-0.5-0.2-0.5-0.5
l0,0C18924,14553.7,18924.2,14553.5,18924.5,14553.5z"/>
</g>
<g id="Rectangle_886">
<path style="fill:#313131;" d="M18924.5,14548.8h6c0.3,0,0.5,0.2,0.5,0.5l0,0c0,0.3-0.2,0.5-0.5,0.5h-6c-0.3,0-0.5-0.2-0.5-0.5
l0,0C18924,14549,18924.2,14548.8,18924.5,14548.8z"/>
</g>
<g id="Rectangle_882">
<path style="fill:#313131;" d="M18967.3,14538.5h0.5c0.3,0,0.5,0.2,0.5,0.5l0,0c0,0.3-0.2,0.5-0.5,0.5h-0.5
c-0.3,0-0.5-0.2-0.5-0.5l0,0C18966.8,14538.8,18967,14538.5,18967.3,14538.5z"/>
</g>
<g id="Rectangle_883">
<path style="fill:#313131;" d="M18964.2,14544.8h0.5c0.3,0,0.5,0.2,0.5,0.5l0,0c0,0.3-0.2,0.5-0.5,0.5h-0.5
c-0.3,0-0.5-0.2-0.5-0.5l0,0C18963.6,14545.1,18963.9,14544.8,18964.2,14544.8z"/>
</g>
<g id="Rectangle_887">
<path style="fill:#FFACAC;" d="M18928.3,14540.4L18928.3,14540.4c0.4,0,0.7,0.3,0.7,0.7v5c0,0.4-0.3,0.7-0.7,0.7l0,0
c-0.4,0-0.7-0.3-0.7-0.7v-5C18927.7,14540.7,18928,14540.4,18928.3,14540.4z"/>
</g>
<g id="Group_361" transform="translate(1102 9440)">
<g id="Subtraction_17" transform="translate(17847.98 5079.57)">
<g>
<path style="fill:#FFE65A;" d="M-0.5,20.5C-3.1,20.5-5.6,20-8,19c-1.1-0.5-2.2-1.1-3.3-1.8c-1-0.7-2-1.5-2.8-2.3
c-0.9-0.9-1.7-1.8-2.3-2.8c-0.7-1-1.3-2.1-1.8-3.3c-1-2.4-1.5-4.9-1.5-7.5V1c0-1.4,0.1-2.7,0.4-4.1h1c0.4,2,1.2,3.9,2.3,5.7
c1.1,1.7,2.4,3.2,4,4.5s3.4,2.3,5.3,3c2,0.7,4.1,1.1,6.2,1.1s4.2-0.4,6.2-1.1c1.9-0.7,3.7-1.7,5.3-3s2.9-2.8,4-4.5
c1-1.7,1.8-3.6,2.2-5.7h1c0.3,1.3,0.4,2.7,0.4,4.1v0.4c0,2.6-0.5,5.1-1.5,7.5c-0.5,1.1-1.1,2.2-1.8,3.3c-0.7,1-1.5,2-2.3,2.8
c-0.9,0.9-1.8,1.7-2.8,2.3c-1,0.7-2.1,1.3-3.3,1.8C4.6,20,2.1,20.5-0.5,20.5z"/>
</g>
<g>
<path style="fill:#313131;" d="M-0.5,20c2.5,0,5-0.5,7.3-1.5c1.1-0.5,2.2-1,3.2-1.7s1.9-1.4,2.8-2.3c0.8-0.8,1.6-1.8,2.3-2.8
s1.3-2.1,1.7-3.2c1-2.3,1.5-4.7,1.5-7.3V1c0-1.3-0.1-2.7-0.4-3.9c-0.4,2.1-1.2,4-2.4,5.8c-1.1,1.8-2.5,3.3-4.1,4.7
C9.8,8.9,7.9,10,6,10.7c-2,0.7-4.2,1.1-6.4,1.1s-4.3-0.4-6.4-1.1c-2-0.7-3.8-1.8-5.4-3.1s-3-2.9-4.1-4.7s-1.9-3.8-2.4-5.8
C-19-1.7-19.2-0.3-19.2,1v0.4c0,2.5,0.5,5,1.5,7.3c0.5,1.1,1,2.2,1.7,3.2c0.7,1,1.4,1.9,2.3,2.8c0.8,0.8,1.8,1.6,2.8,2.3
s2.1,1.3,3.2,1.7C-5.5,19.5-3,20-0.5,20 M-0.5,21c-2.7,0-5.2-0.5-7.7-1.5c-1.2-0.5-2.3-1.1-3.3-1.8c-1-0.7-2-1.5-2.9-2.4
s-1.7-1.9-2.4-2.9c-0.7-1.1-1.3-2.2-1.8-3.3c-1-2.4-1.5-5-1.5-7.7V1c0-1.4,0.1-2.8,0.4-4.2c0.1-0.5,0.5-0.8,1-0.8s0.9,0.3,1,0.8
c0.4,2,1.2,3.8,2.2,5.5s2.3,3.2,3.9,4.4c1.5,1.3,3.2,2.3,5.1,3s3.9,1.1,6,1.1s4.1-0.4,6-1.1C7.4,9,9.1,8,10.6,6.7
c1.5-1.2,2.8-2.7,3.9-4.4s1.8-3.6,2.2-5.5c0.1-0.5,0.5-0.8,1-0.8s0.9,0.3,1,0.8C19-1.8,19.2-0.4,19.2,1v0.4
c0,2.7-0.5,5.2-1.5,7.7c-0.5,1.2-1.1,2.3-1.8,3.3s-1.5,2-2.4,2.9c-0.9,0.9-1.9,1.7-2.9,2.4c-1.1,0.7-2.2,1.3-3.3,1.8
C4.7,20.5,2.1,21-0.5,21z"/>
</g>
</g>
<g id="Subtraction_19">
<path style="fill:#FFC238;" d="M17858.4,5096L17858.4,5096c2-3,3-6.6,3-10.2v-0.4c0-0.1,0-0.3,0-0.4c0.7-0.8,1.3-1.7,1.9-2.6
c1.1-1.8,1.9-3.8,2.4-5.8c0.3,1.3,0.4,2.6,0.4,3.9v0.4c0,2.5-0.5,5-1.5,7.3c-0.5,1.1-1,2.2-1.7,3.2s-1.4,1.9-2.3,2.8
C17860,5094.8,17859.2,5095.4,17858.4,5096z"/>
</g>
<g id="Subtraction_21">
<path style="fill:#FFF9D9;" d="M17829.2,5076.6L17829.2,5076.6c0.4,2.1,1.2,4,2.4,5.8c0.1,0.2,0.3,0.5,0.5,0.7
c-0.5,1.8-0.8,3.7-0.8,5.6v1.4c-0.4-0.6-0.7-1.3-1-2c-1-2.3-1.5-4.8-1.5-7.3v-0.4C17828.7,5079.2,17828.9,5077.9,17829.2,5076.6z
"/>
</g>
</g>
<g id="Path_128">
<path style="fill:#FFE7C1;" d="M18931.1,14561.2c0.7,0,1.9,1.2,1.9,2s-0.2,0.4-1,0.4c-0.7,0-0.6-0.2-1.4,0.2
c-0.1-0.8-0.2-1.7-0.3-2.5C18930.4,14560.9,18930.7,14561.2,18931.1,14561.2z"/>
</g>
<g id="Ellipse_69">
<circle style="fill:#313131;" cx="18931.1" cy="14563.7" r="0.5"/>
</g>
<g id="Ellipse_70">
<circle style="fill:#313131;" cx="18930.8" cy="14561.4" r="0.5"/>
</g>
<g id="Rectangle_877">
<rect x="18953.9" y="14553.5" style="fill:#FFE7C1;" width="2.1" height="2.1"/>
</g>
<g id="Rectangle_878">
<rect x="18953.9" y="14551.4" style="fill:#FF4848;" width="2.1" height="2.1"/>
</g>
<g id="Ellipse_66">
<circle style="fill:#313131;" cx="18953.9" cy="14553.5" r="0.5"/>
</g>
<g id="Ellipse_67">
<circle style="fill:#313131;" cx="18956" cy="14553.5" r="0.5"/>
</g>
</g>
</svg>
