<svg xmlns="http://www.w3.org/2000/svg" viewBox="0 0 53 39"><path d="M25.966 4.044h21c3.3 0 6 2.7 6 6v4c0 6.6-5.4 12-12 12h-15c-3.3 0-6-2.7-6-6v-10c0-3.4 2.7-6 6-6z" fill="#ffc400"/><path d="M7.966 2.044h30c3.3 0 6 2.7 6 6v10c0 11.6-9.4 21-21 21h-1c-11 0-20-9-20-20v-11c0-3.4 2.7-6 6-6z" fill="#ffc400"/><path d="M25 3h21c2.2 0 4 1.8 4 4v9c0 4.4-3.6 8-8 8H25c-4.4 0-8-3.6-8-8v-5c0-4.4 3.6-8 8-8z" fill="#e0e0e0"/><path d="M42 24H25c-4.4 0-8-3.6-8-8v-5c0-4.4 3.6-8 8-8h21c2.2 0 4 1.8 4 4v9c0 4.4-3.6 8-8 8zM25 5c-3.3 0-6 2.7-6 6v5c0 3.3 2.7 6 6 6h17c3.3 0 6-2.7 6-6V7c0-1.1-.9-2-2-2H25z" fill="#313131"/><path d="M6.7 0h30.5C40.4 0 43 2.6 43 5.7V16c0 11.6-9.4 21-21 21S1 27.6 1 16V5.7C1 2.6 3.6 0 6.7 0z" fill="#fff"/><path d="M22 37C10.4 37 1 27.6 1 16V5.8C1 2.6 3.6 0 6.8 0h30.5C40.4 0 43 2.6 43 5.8V16c0 11.6-9.4 21-21 21zM6.8 2C4.7 2 3 3.7 3 5.8V16c0 10.5 8.5 19 19 19s19-8.5 19-19V5.8C41 3.7 39.3 2 37.2 2H6.8z" fill="#313131"/><path fill="#fff" d="M2 11h2v6H2zM0 11h2v6H0z"/><path d="M2 10c.6 0 1 .4 1 1s-.4 1-1 1-1-.4-1-1 .4-1 1-1zM2 16c.6 0 1 .4 1 1s-.4 1-1 1-1-.4-1-1 .4-1 1-1z" fill="#313131"/><g><path d="M32 31.7V2h5c2.2 0 4 1.8 4 4v9c0 6.7-3.4 13-9 16.7z" fill="#f5f5f5"/></g><g><path fill="#d3d3d3" d="M23 9h2v18h-2z"/></g><g><path d="M26.231 21.288c0-.5-.2-1-.7-1.3s-1.1-.5-2.2-.7-1.9-.5-2.6-.8c-1.5-.7-2.3-1.8-2.3-3.2 0-1.2.5-2.2 1.5-3s2.3-1.2 3.8-1.2c1.6 0 3 .4 4 1.2 1 .8 1.5 1.9 1.5 3.2h-3.1c0-.6-.2-1.1-.7-1.5-.4-.5-1-.7-1.7-.7s-1.2.2-1.7.5-.6.7-.6 1.3c0 .5.2.8.6 1.1s1.2.5 2.4.8c1.2.3 2.2.6 2.9 1 .7.4 1.2.8 1.5 1.3.3.5.5 1.1.5 1.9 0 1.2-.5 2.2-1.5 3-1 .8-2.4 1.1-4 1.1-1.1 0-2.1-.2-3-.6s-1.6-1-2.1-1.7-.7-1.5-.7-2.3h3c0 .7.3 1.3.8 1.7.5.4 1.2.6 2 .6s1.4-.2 1.9-.5c.3-.3.5-.7.5-1.2z" fill="#d3d3d3"/><path d="M24.231 20.288c0-.5-.2-1-.7-1.3s-1.1-.5-2.2-.7-1.9-.5-2.6-.8c-1.5-.7-2.3-1.8-2.3-3.2 0-1.2.5-2.2 1.5-3s2.3-1.2 3.8-1.2c1.6 0 3 .4 4 1.2s1.5 1.9 1.5 3.2h-3.1c0-.6-.2-1.1-.7-1.5-.4-.5-1-.7-1.7-.7s-1.2.2-1.7.5-.6.7-.6 1.3c0 .5.2.8.6 1.1s1.2.5 2.4.8c1.2.3 2.2.6 2.9 1 .7.4 1.2.8 1.5 1.3.3.5.5 1.1.5 1.9 0 1.2-.5 2.2-1.5 3-1 .8-2.4 1.1-4 1.1-1.1 0-2.1-.2-3-.6s-1.6-1-2.1-1.7-.7-1.5-.7-2.3h3c0 .7.3 1.3.8 1.7.5.4 1.2.6 2 .6s1.4-.2 1.9-.5c.3-.3.5-.7.5-1.2z" fill="#313131"/></g><g><path fill="#313131" d="M21 8h2v18h-2z"/></g></svg>
