<svg xmlns="http://www.w3.org/2000/svg" width="53" height="39" viewBox="0 0 53 39"><g data-name="Group 323"><g data-name="Group 303" transform="translate(-74 -596)"><g data-name="Group 300" fill="#ffc400"><path data-name="Rectangle 697" d="M100 600h21a6 6 0 016 6v4a12 12 0 01-12 12h-15a6 6 0 01-6-6v-10a6 6 0 016-6z"/><path data-name="Rectangle 696" d="M82 598h30a6 6 0 016 6v10a21 21 0 01-21 21h-1a20 20 0 01-20-20v-11a6 6 0 016-6z"/></g><g data-name="Group 301" stroke="#313131" stroke-width="2"><g data-name="Rectangle 697" fill="#e0e0e0"><path d="M99 599h21a4 4 0 014 4v9a8 8 0 01-8 8H99a8 8 0 01-8-8v-5a8 8 0 018-8z" stroke="none"/><path d="M99 600h21a3 3 0 013 3v9a7 7 0 01-7 7H99a7 7 0 01-7-7v-5a7 7 0 017-7z" fill="none"/></g><g data-name="Rectangle 696" fill="#fff"><path d="M80.727 596h30.546a5.727 5.727 0 015.727 5.727V612a21 21 0 01-21 21 21 21 0 01-21-21v-10.273A5.727 5.727 0 0180.727 596z" stroke="none"/><path d="M80.762 597h30.476a4.762 4.762 0 014.762 4.762V612a20 20 0 01-20 20h0a20 20 0 01-20-20v-10.238A4.762 4.762 0 0180.762 597z" fill="none"/></g></g><path data-name="Rectangle 698" fill="#fff" d="M76 607h2v6h-2z"/><path data-name="Rectangle 699" fill="#ffe65a" d="M74 607h2v6h-2z"/><rect data-name="Rectangle 700" width="2" height="2" rx="1" transform="translate(75 606)" fill="#313131"/><rect data-name="Rectangle 701" width="2" height="2" rx="1" transform="translate(75 612)" fill="#313131"/><path data-name="Subtraction 49" d="M106 627.706V598h5a4 4 0 014 4v9a19.975 19.975 0 01-9 16.706z" fill="#f5f5f5"/><path data-name="Rectangle 718" fill="#d3d3d3" d="M97 605h2v18h-2z"/><g data-name="Group 302" font-size="26" font-family="Roboto-Medium, Roboto Medium" font-weight="500"><text transform="translate(91 621)" fill="#d3d3d3"><tspan x="0" y="0">s</tspan></text><text data-name="s" transform="translate(89 620)" fill="#313131"><tspan x="0" y="0">s</tspan></text></g><path data-name="Rectangle 713" fill="#313131" d="M95 604h2v18h-2z"/></g></g></svg>