<svg xmlns="http://www.w3.org/2000/svg" width="45" height="49" viewBox="0 0 45 49">
  <g id="Group_321" data-name="Group 321" transform="translate(0.066)">
    <rect id="Rectangle_23" data-name="Rectangle 23" width="43" height="49" rx="5" transform="translate(1.934)" fill="#ffc400"/>
    <g id="Rectangle_675" data-name="Rectangle 675" transform="translate(0.934)" fill="#fff" stroke="#313131" stroke-width="2">
      <rect width="41" height="46" rx="5" stroke="none"/>
      <rect x="1" y="1" width="39" height="44" rx="4" fill="none"/>
    </g>
    <path id="Path_7" data-name="Path 7" d="M4509.366-1358.473l4.4,4.6,7.685-9.67" transform="translate(-4486.313 1371.337)" fill="none" stroke="#d3d3d3" stroke-linecap="round" stroke-linejoin="round" stroke-width="2"/>
    <path id="Path_108" data-name="Path 108" d="M4509.366-1358.787l4.127,4.315,7.209-9.071" transform="translate(-4486.564 1370.337)" fill="none" stroke="#313131" stroke-linecap="round" stroke-linejoin="round" stroke-width="2"/>
    <rect id="Rectangle_677" data-name="Rectangle 677" width="2" height="6" transform="translate(40.934 26)" fill="#ffc400"/>
    <rect id="Rectangle_678" data-name="Rectangle 678" width="2" height="6" transform="translate(38.934 26)" fill="#fff"/>
    <rect id="Rectangle_676" data-name="Rectangle 676" width="2" height="2" rx="1" transform="translate(39.934 25)" fill="#313131"/>
    <rect id="Rectangle_679" data-name="Rectangle 679" width="2" height="2" rx="1" transform="translate(39.934 31)" fill="#313131"/>
    <g id="Group_298" data-name="Group 298" transform="translate(0 5)">
      <rect id="Rectangle_683" data-name="Rectangle 683" width="2" height="6" transform="translate(1.934 1)" fill="#fff"/>
      <rect id="Rectangle_681" data-name="Rectangle 681" width="2" height="6" transform="translate(-0.066 1)" fill="#ffe65a"/>
      <rect id="Rectangle_680" data-name="Rectangle 680" width="2" height="2" rx="1" transform="translate(0.934)" fill="#313131"/>
      <rect id="Rectangle_682" data-name="Rectangle 682" width="2" height="2" rx="1" transform="translate(0.934 6)" fill="#313131"/>
    </g>
    <rect id="Rectangle_684" data-name="Rectangle 684" width="24" height="3" rx="1.5" transform="translate(14 36.5)" fill="#d3d3d3"/>
    <rect id="Rectangle_689" data-name="Rectangle 689" width="3" height="3" rx="1.5" transform="translate(7 36.5)" fill="#d3d3d3"/>
    <rect id="Rectangle_685" data-name="Rectangle 685" width="24" height="3" rx="1.5" transform="translate(14 29.5)" fill="#d3d3d3"/>
    <rect id="Rectangle_688" data-name="Rectangle 688" width="3" height="3" rx="1.5" transform="translate(7 29.5)" fill="#d3d3d3"/>
    <rect id="Rectangle_686" data-name="Rectangle 686" width="24" height="3" rx="1.5" transform="translate(14 22.5)" fill="#d3d3d3"/>
    <rect id="Rectangle_687" data-name="Rectangle 687" width="3" height="3" rx="1.5" transform="translate(7 22.5)" fill="#d3d3d3"/>
    <g id="Group_6" data-name="Group 6" transform="translate(6.971 35.042)">
      <line id="Line_1" data-name="Line 1" x2="21" transform="translate(7.5 1.5)" fill="none" stroke="#313131" stroke-linecap="round" stroke-width="2"/>
      <g id="Ellipse_5" data-name="Ellipse 5" fill="#fff" stroke="#313131" stroke-width="2">
        <circle cx="1.5" cy="1.5" r="1.5" stroke="none"/>
        <circle cx="1.5" cy="1.5" r="0.5" fill="none"/>
      </g>
    </g>
    <g id="Group_7" data-name="Group 7" transform="translate(6.971 27.875)">
      <line id="Line_1-2" data-name="Line 1" x2="21" transform="translate(7.5 1.5)" fill="none" stroke="#313131" stroke-linecap="round" stroke-width="2"/>
      <g id="Ellipse_5-2" data-name="Ellipse 5" fill="#fff" stroke="#313131" stroke-width="2">
        <circle cx="1.5" cy="1.5" r="1.5" stroke="none"/>
        <circle cx="1.5" cy="1.5" r="0.5" fill="none"/>
      </g>
    </g>
    <g id="Group_8" data-name="Group 8" transform="translate(6.971 20.708)">
      <line id="Line_1-3" data-name="Line 1" x2="21" transform="translate(7.5 1.5)" fill="none" stroke="#313131" stroke-linecap="round" stroke-width="2"/>
      <g id="Ellipse_5-3" data-name="Ellipse 5" fill="#fff" stroke="#313131" stroke-width="2">
        <circle cx="1.5" cy="1.5" r="1.5" stroke="none"/>
        <circle cx="1.5" cy="1.5" r="0.5" fill="none"/>
      </g>
    </g>
  </g>
</svg>
