<svg xmlns="http://www.w3.org/2000/svg" viewBox="0 0 45 49"><path d="M6.966 0h33c2.8 0 5 2.2 5 5v39c0 2.8-2.2 5-5 5h-33c-2.8 0-5-2.2-5-5V5c0-2.8 2.3-5 5-5z" fill="#ffc400"/><path d="M6 0h31c2.8 0 5 2.2 5 5v36c0 2.8-2.2 5-5 5H6c-2.8 0-5-2.2-5-5V5c0-2.8 2.2-5 5-5z" fill="#fff"/><path d="M37 46H6c-2.8 0-5-2.2-5-5V5c0-2.8 2.2-5 5-5h31c2.8 0 5 2.2 5 5v36c0 2.8-2.2 5-5 5zM6 2C4.3 2 3 3.3 3 5v36c0 1.7 1.3 3 3 3h31c1.7 0 3-1.3 3-3V5c0-1.7-1.3-3-3-3H6z" fill="#313131"/><path d="M27.566 18.5c-.3 0-.5-.1-.7-.3l-4.4-4.6c-.4-.4-.4-1 0-1.4.4-.4 1-.4 1.4 0l3.6 3.8 7-8.8c.3-.4 1-.5 1.4-.2.4.3.5 1 .2 1.4l-7.7 9.7c-.2.2-.5.3-.8.4z" fill="#d3d3d3"/><path d="M26.966 16.9c-.3 0-.5-.1-.7-.3l-4.1-4.3c-.4-.4-.4-1 0-1.4.4-.4 1-.4 1.4 0l3.3 3.5 6.5-8.2c.3-.4 1-.5 1.4-.2.4.3.5 1 .2 1.4l-7.2 9.1c-.2.2-.4.4-.8.4.1 0 0 0 0 0z" fill="#313131"/><path fill="#ffc400" d="M40.966 26h2v6h-2z"/><path fill="#fff" d="M38.966 26h2v6h-2z"/><path d="M40.966 25c.6 0 1 .4 1 1s-.4 1-1 1-1-.4-1-1 .5-1 1-1zM40.966 31c.6 0 1 .4 1 1s-.4 1-1 1-1-.4-1-1 .5-1 1-1z" fill="#313131"/><path fill="#fff" d="M1.966 6h2v6h-2zM-.034 6h2v6h-2z"/><path d="M1.966 5c.6 0 1 .4 1 1s-.4 1-1 1-1-.4-1-1 .5-1 1-1zM1.966 11c.6 0 1 .4 1 1s-.4 1-1 1-1-.4-1-1 .5-1 1-1z" fill="#313131"/><path d="M15.566 36.5h21c.8 0 1.5.7 1.5 1.5s-.7 1.5-1.5 1.5h-21c-.8 0-1.5-.7-1.5-1.5s.7-1.5 1.5-1.5zM8.566 36.5c.8 0 1.5.7 1.5 1.5s-.7 1.5-1.5 1.5-1.5-.7-1.5-1.5.7-1.5 1.5-1.5zM15.566 29.5h21c.8 0 1.5.7 1.5 1.5s-.7 1.5-1.5 1.5h-21c-.8 0-1.5-.7-1.5-1.5s.7-1.5 1.5-1.5zM8.566 29.5c.8 0 1.5.7 1.5 1.5s-.7 1.5-1.5 1.5-1.5-.7-1.5-1.5.7-1.5 1.5-1.5zM15.566 22.5h21c.8 0 1.5.7 1.5 1.5s-.7 1.5-1.5 1.5h-21c-.8 0-1.5-.7-1.5-1.5s.7-1.5 1.5-1.5z" fill="#d3d3d3"/><g><path d="M8.566 22.5c.8 0 1.5.7 1.5 1.5s-.7 1.5-1.5 1.5-1.5-.7-1.5-1.5.7-1.5 1.5-1.5z" fill="#d3d3d3"/></g><g><path d="M35.537 37.542h-21c-.6 0-1-.4-1-1s.4-1 1-1h21c.6 0 1 .4 1 1s-.4 1-1 1z" fill="#313131"/><circle cx="1.5" cy="1.5" r="1.5" fill="#fff" transform="translate(7.037 35.042)"/><g fill="#313131" transform="translate(7.037 35.042)"><circle cx="1.5" cy="1.5" r=".5"/><path d="M1.5 3C.7 3 0 2.3 0 1.5S.7 0 1.5 0 3 .7 3 1.5 2.3 3 1.5 3zm0-2c-.3 0-.5.2-.5.5s.2.5.5.5.5-.2.5-.5-.2-.5-.5-.5z"/></g></g><g><path d="M35.537 30.375h-21c-.6 0-1-.4-1-1s.4-1 1-1h21c.6 0 1 .4 1 1s-.4 1-1 1z" fill="#313131"/><circle cx="1.5" cy="1.5" r="1.5" fill="#fff" transform="translate(7.037 27.875)"/><g fill="#313131" transform="translate(7.037 27.875)"><circle cx="1.5" cy="1.5" r=".5"/><path d="M1.5 3C.7 3 0 2.3 0 1.5S.7 0 1.5 0 3 .7 3 1.5 2.3 3 1.5 3zm0-2c-.3 0-.5.2-.5.5s.2.5.5.5.5-.2.5-.5-.2-.5-.5-.5z"/></g></g><g><path d="M35.537 23.208h-21c-.6 0-1-.4-1-1s.4-1 1-1h21c.6 0 1 .4 1 1s-.4 1-1 1z" fill="#313131"/><circle cx="1.5" cy="1.5" r="1.5" fill="#fff" transform="translate(7.037 20.708)"/><g fill="#313131" transform="translate(7.037 20.708)"><circle cx="1.5" cy="1.5" r=".5"/><path d="M1.5 3C.7 3 0 2.3 0 1.5S.7 0 1.5 0 3 .7 3 1.5 2.3 3 1.5 3zm0-2c-.3 0-.5.2-.5.5s.2.5.5.5.5-.2.5-.5-.2-.5-.5-.5z"/></g></g></svg>
