<svg xmlns="http://www.w3.org/2000/svg" width="45" height="49" viewBox="0 0 45 49"><g data-name="Group 321" transform="translate(.066)"><rect data-name="Rectangle 23" width="43" height="49" rx="5" transform="translate(1.934)" fill="#ffc400"/><g data-name="Rectangle 675" transform="translate(.934)" fill="#fff" stroke="#313131" stroke-width="2"><rect width="41" height="46" rx="5" stroke="none"/><rect x="1" y="1" width="39" height="44" rx="4" fill="none"/></g><path data-name="Path 7" d="M23.053 12.864l4.4 4.6 7.685-9.67" fill="none" stroke="#d3d3d3" stroke-linecap="round" stroke-linejoin="round" stroke-width="2"/><path data-name="Path 108" d="M22.802 11.55l4.127 4.315 7.209-9.071" fill="none" stroke="#313131" stroke-linecap="round" stroke-linejoin="round" stroke-width="2"/><path data-name="Rectangle 677" fill="#ffc400" d="M40.934 26h2v6h-2z"/><path data-name="Rectangle 678" fill="#fff" d="M38.934 26h2v6h-2z"/><rect data-name="Rectangle 676" width="2" height="2" rx="1" transform="translate(39.934 25)" fill="#313131"/><rect data-name="Rectangle 679" width="2" height="2" rx="1" transform="translate(39.934 31)" fill="#313131"/><g data-name="Group 298" transform="translate(0 5)"><path data-name="Rectangle 683" fill="#fff" d="M1.934 1h2v6h-2z"/><path data-name="Rectangle 681" fill="#ffe65a" d="M-.066 1h2v6h-2z"/><rect data-name="Rectangle 680" width="2" height="2" rx="1" transform="translate(.934)" fill="#313131"/><rect data-name="Rectangle 682" width="2" height="2" rx="1" transform="translate(.934 6)" fill="#313131"/></g><rect data-name="Rectangle 684" width="24" height="3" rx="1.5" transform="translate(14 36.5)" fill="#d3d3d3"/><rect data-name="Rectangle 689" width="3" height="3" rx="1.5" transform="translate(7 36.5)" fill="#d3d3d3"/><rect data-name="Rectangle 685" width="24" height="3" rx="1.5" transform="translate(14 29.5)" fill="#d3d3d3"/><rect data-name="Rectangle 688" width="3" height="3" rx="1.5" transform="translate(7 29.5)" fill="#d3d3d3"/><rect data-name="Rectangle 686" width="24" height="3" rx="1.5" transform="translate(14 22.5)" fill="#d3d3d3"/><rect data-name="Rectangle 687" width="3" height="3" rx="1.5" transform="translate(7 22.5)" fill="#d3d3d3"/><g data-name="Group 6" stroke="#313131" stroke-width="2"><path data-name="Line 1" fill="none" stroke-linecap="round" d="M14.471 36.542h21"/><g data-name="Ellipse 5" fill="#fff" transform="translate(6.971 35.042)"><circle cx="1.5" cy="1.5" r="1.5" stroke="none"/><circle cx="1.5" cy="1.5" r=".5" fill="none"/></g></g><g data-name="Group 7" stroke="#313131" stroke-width="2"><path data-name="Line 1" fill="none" stroke-linecap="round" d="M14.471 29.375h21"/><g data-name="Ellipse 5" fill="#fff" transform="translate(6.971 27.875)"><circle cx="1.5" cy="1.5" r="1.5" stroke="none"/><circle cx="1.5" cy="1.5" r=".5" fill="none"/></g></g><g data-name="Group 8" stroke="#313131" stroke-width="2"><path data-name="Line 1" fill="none" stroke-linecap="round" d="M14.471 22.208h21"/><g data-name="Ellipse 5" fill="#fff" transform="translate(6.971 20.708)"><circle cx="1.5" cy="1.5" r="1.5" stroke="none"/><circle cx="1.5" cy="1.5" r=".5" fill="none"/></g></g></g></svg>