<svg xmlns="http://www.w3.org/2000/svg" viewBox="0 0 20.7 27.6"><path d="M4 0h13.7c1.7 0 3 1.3 3 3v17.6c0 1.7-1.3 3-3 3H7c-3.9 0-7-3.1-7-7V4c0-2.2 1.8-4 4-4z" fill="#313131"/><path d="M17.7 23.6H7c-3.9 0-7-3.1-7-7V4c0-2.2 1.8-4 4-4h13.7c1.7 0 3 1.3 3 3v17.6c0 1.6-1.3 3-3 3zM4 2c-1.1 0-2 .9-2 2v12.6c0 2.8 2.2 5 5 5h10.7c.6 0 1-.4 1-1V3c0-.6-.4-1-1-1H4z" fill="#313131"/><g><path d="M14 26.681c-.3 0-.7-.1-1.1-.3-1.7-.7-4.9-2-9.5-3.9h-.2c-1-.4-1.5-.7-1.8-1.1-.3-.2-.4-.6-.4-1.4v-16.7c0-1.5.6-1.8 1.2-2.2.1-.1.3-.1.5-.1.8 0 2 .4 3.6.9l1.8.6c2.8.9 4.7 1.8 5.5 2.2.1 0 .2.1.2.1.9.5 1.2 1 1.4 1.5.2.6.2 1.5.2 2.6v16.1c0 1.1-.6 1.7-1.4 1.7z" fill="#ffe65a"/><path d="M2.7 2.081h-.1c-.2.1-.3.2-.4.3-.1.1-.2.5-.2.9v16.7c0 .5.1.7.1.8.2.2 1.1.6 1.5.8l.2.1c4.6 1.9 7.8 3.2 9.5 3.8h.2c.3.1.5.2.7.2.2 0 .2-.1.3-.1.1-.1.2-.3.2-.5v-14.5-1.6c0-1 0-1.8-.2-2.3-.1-.2-.2-.5-.9-.9-.1 0-.1-.1-.2-.1-.8-.4-2.7-1.3-5.4-2.1-.9-.3-1.5-.5-2-.7-1.4-.4-2.6-.8-3.3-.8m0-2c1.3 0 3.2.8 5.7 1.6 3.2 1 5.3 2.1 5.9 2.4 2.5 1.4 2 3.2 2.1 6.5v14.6c-.1 1.5-1.1 2.5-2.5 2.5-.5 0-1-.1-1.5-.4-2.7-1-8.7-3.5-9.7-3.9-2.1-1-2.8-1.4-2.8-3.4v-16.7c0-2 1-2.6 1.8-3 .4-.2.7-.2 1-.2z" fill="#313131"/></g></svg>