<?xml version="1.0" encoding="utf-8"?>
<!-- Generator: Adobe Illustrator 20.1.0, SVG Export Plug-In . SVG Version: 6.00 Build 0)  -->
<svg version="1.1" id="圖層_1" xmlns="http://www.w3.org/2000/svg" xmlns:xlink="http://www.w3.org/1999/xlink" x="0px" y="0px"
	 viewBox="0 0 20.7 27.6" style="enable-background:new 0 0 20.7 27.6;" xml:space="preserve">
<g id="Group_332" transform="translate(-218 -587.5)">
	<g id="Rectangle_822" transform="translate(218 587.5)">
		<g>
			<path style="fill:#313131;" d="M4,0h13.7c1.7,0,3,1.3,3,3v17.6c0,1.7-1.3,3-3,3H7c-3.9,0-7-3.1-7-7V4C0,1.8,1.8,0,4,0z"/>
		</g>
		<g>
			<path style="fill:#313131;" d="M17.7,23.6H7c-3.9,0-7-3.1-7-7V4c0-2.2,1.8-4,4-4h13.7c1.7,0,3,1.3,3,3v17.6
				C20.7,22.2,19.4,23.6,17.7,23.6z M4,2C2.9,2,2,2.9,2,4v12.6c0,2.8,2.2,5,5,5h10.7c0.6,0,1-0.4,1-1V3c0-0.6-0.4-1-1-1H4z"/>
		</g>
	</g>
	<g id="Path_115" transform="translate(218 586.981)">
		<g>
			<path style="fill:#FFE65A;" d="M14,27.2c-0.3,0-0.7-0.1-1.1-0.3l0,0l0,0C11.2,26.2,8,24.9,3.4,23L3.2,23c-1-0.4-1.5-0.7-1.8-1.1
				C1.1,21.7,1,21.3,1,20.5V3.8C1,2.3,1.6,2,2.2,1.6c0.1-0.1,0.3-0.1,0.5-0.1c0.8,0,2,0.4,3.6,0.9c0.6,0.2,1.2,0.4,1.8,0.6
				c2.8,0.9,4.7,1.8,5.5,2.2c0.1,0,0.2,0.1,0.2,0.1c0.9,0.5,1.2,1,1.4,1.5c0.2,0.6,0.2,1.5,0.2,2.6c0,0.5,0,1,0,1.5
				c0,2.1,0,13.7,0,14.6C15.4,26.6,14.8,27.2,14,27.2z"/>
		</g>
		<g>
			<path style="fill:#313131;" d="M2.7,2.6c-0.1,0-0.1,0-0.1,0C2.4,2.7,2.3,2.8,2.2,2.9C2.1,3,2,3.4,2,3.8v16.7
				c0,0.5,0.1,0.7,0.1,0.8c0.2,0.2,1.1,0.6,1.5,0.8l0.2,0.1c4.6,1.9,7.8,3.2,9.5,3.8l0.1,0l0.1,0c0.3,0.1,0.5,0.2,0.7,0.2
				c0.2,0,0.2-0.1,0.3-0.1c0.1-0.1,0.2-0.3,0.2-0.5c0-1.3,0-12.3,0-14.5c0-0.6,0-1.1,0-1.6c0-1,0-1.8-0.2-2.3
				c-0.1-0.2-0.2-0.5-0.9-0.9c-0.1,0-0.1-0.1-0.2-0.1c-0.8-0.4-2.7-1.3-5.4-2.1C7.1,3.8,6.5,3.6,6,3.4C4.6,3,3.4,2.6,2.7,2.6
				 M2.7,0.6c1.3,0,3.2,0.8,5.7,1.6c3.2,1,5.3,2.1,5.9,2.4c2.5,1.4,2,3.2,2.1,6.5c0,2.2,0,14.6,0,14.6c-0.1,1.5-1.1,2.5-2.5,2.5
				c-0.5,0-1-0.1-1.5-0.4c-2.7-1-8.7-3.5-9.7-3.9c-2.1-1-2.8-1.4-2.8-3.4V3.8c0-2,1-2.6,1.8-3C2.1,0.6,2.4,0.6,2.7,0.6z"/>
		</g>
	</g>
</g>
</svg>
