<svg xmlns="http://www.w3.org/2000/svg" width="20" height="20" viewBox="0 0 20 20">
  <path id="Icon_awesome-facebook-square" data-name="Icon awesome-facebook-square" d="M17.857,2.25H2.143A2.143,2.143,0,0,0,0,4.393V20.107A2.143,2.143,0,0,0,2.143,22.25H8.27v-6.8H5.458v-3.2H8.27V9.811C8.27,7.036,9.922,5.5,12.452,5.5a17.039,17.039,0,0,1,2.479.216V8.443h-1.4a1.6,1.6,0,0,0-1.8,1.729V12.25H14.8l-.491,3.2H11.73v6.8h6.127A2.143,2.143,0,0,0,20,20.107V4.393A2.143,2.143,0,0,0,17.857,2.25Z" transform="translate(0 -2.25)"/>
</svg>
