<svg xmlns="http://www.w3.org/2000/svg" width="49" height="45.108" viewBox="0 0 49 45.108">
  <g id="Group_509" data-name="Group 509" transform="translate(-57 -782)">
    <path id="Union_36" data-name="Union 36" d="M18.279,40.95,18.813,34H16.24a6,6,0,0,1-6-6V6a6,6,0,0,1,6-6h36a6,6,0,0,1,6,6V28a6,6,0,0,1-6,6H34.187L21.4,42.754a1.976,1.976,0,0,1-1.124.354A2,2,0,0,1,18.279,40.95Z" transform="translate(47.76 784)" fill="#ffc400"/>
    <g id="Union_37" data-name="Union 37" transform="translate(46.76 782)" fill="#fff">
      <path d="M 18.91760063171387 43.10755920410156 C 18.67446136474609 43.10757064819336 18.43305015563965 42.99777984619141 18.25529098510742 42.80633926391602 C 18.12066078186035 42.66136932373047 17.96617126464844 42.40793228149414 17.99466133117676 42.02389144897461 L 18.58139038085938 34.07379913330078 L 18.66061973571777 33.00020217895508 L 17.5841007232666 33.00020217895508 L 16.24050140380859 33.00020217895508 C 13.48333072662354 33.00020217895508 11.24020004272461 30.75707054138184 11.24020004272461 27.99990081787109 L 11.24020004272461 6.000300407409668 C 11.24020004272461 3.243130683898926 13.48333072662354 1.000000596046448 16.24050140380859 1.000000596046448 L 50.23979949951172 1.000000596046448 C 52.99697113037109 1.000000596046448 55.2401008605957 3.243130683898926 55.2401008605957 6.000300407409668 L 55.2401008605957 27.99990081787109 C 55.2401008605957 30.75707054138184 52.99697113037109 33.00020217895508 50.23979949951172 33.00020217895508 L 33.67115020751953 33.00020217895508 L 33.35107040405273 33.00020217895508 L 33.09048080444336 33.18606185913086 L 19.41553115844727 42.93936157226562 C 19.25905990600586 43.05094909667969 19.09151077270508 43.10755157470703 18.91757965087891 43.10755920410156 L 18.91760063171387 43.10755920410156 Z" stroke="none"/>
      <path d="M 18.99851608276367 42.00850296020508 L 32.50981903076172 32.37192153930664 L 33.03100204467773 32.00020217895508 L 33.67115020751953 32.00020217895508 L 50.23979949951172 32.00020217895508 C 52.44557189941406 32.00020217895508 54.2401008605957 30.2056713104248 54.2401008605957 27.99990081787109 L 54.2401008605957 6.000300407409668 C 54.2401008605957 3.794530630111694 52.44557189941406 2.000000476837158 50.23979949951172 2.000000476837158 L 16.24050140380859 2.000000476837158 C 14.03473091125488 2.000000476837158 12.24020004272461 3.794530630111694 12.24020004272461 6.000300407409668 L 12.24020004272461 27.99990081787109 C 12.24020004272461 30.2056713104248 14.03473091125488 32.00020217895508 16.24050140380859 32.00020217895508 L 17.5841007232666 32.00020217895508 L 19.73714065551758 32.00020217895508 L 19.57868003845215 34.14739990234375 L 18.99851608276367 42.00850296020508 M 18.91764068603516 44.10755920410156 C 17.87004089355469 44.10760116577148 16.90517044067383 43.19303894042969 16.99740028381348 41.94990158081055 L 17.5841007232666 34.00020217895508 L 16.24050140380859 34.00020217895508 C 12.92670059204102 34.00020217895508 10.24020004272461 31.31369972229004 10.24020004272461 27.99990081787109 L 10.24020004272461 6.000300407409668 C 10.24020004272461 2.686500549316406 12.92670059204102 5.828857183587388e-07 16.24050140380859 5.828857183587388e-07 L 50.23979949951172 5.828857183587388e-07 C 53.5536003112793 5.828857183587388e-07 56.2401008605957 2.686500549316406 56.2401008605957 6.000300407409668 L 56.2401008605957 27.99990081787109 C 56.2401008605957 31.31369972229004 53.5536003112793 34.00020217895508 50.23979949951172 34.00020217895508 L 33.67115020751953 34.00020217895508 L 19.99620056152344 43.75350189208984 C 19.65382957458496 43.99766159057617 19.28073120117188 44.10754013061523 18.91764068603516 44.10755920410156 Z" stroke="none" fill="#313131"/>
    </g>
    <rect id="Rectangle_946" data-name="Rectangle 946" width="2" height="6" transform="translate(102 792)" fill="#ffc400"/>
    <rect id="Rectangle_945" data-name="Rectangle 945" width="2" height="6" transform="translate(100 792)" fill="#fff"/>
    <rect id="Rectangle_947" data-name="Rectangle 947" width="2" height="2" rx="1" transform="translate(101 791)" fill="#313131"/>
    <rect id="Rectangle_948" data-name="Rectangle 948" width="2" height="2" rx="1" transform="translate(101 797)" fill="#313131"/>
    <g id="Group_505" data-name="Group 505" transform="translate(69.381 795.208)">
      <rect id="Rectangle_686" data-name="Rectangle 686" width="21.557" height="3" rx="1.5" transform="translate(0 0.292)" fill="#d3d3d3"/>
      <g id="Group_8" data-name="Group 8" transform="translate(0.471)">
        <line id="Line_1" data-name="Line 1" x2="18.557" fill="none" stroke="#313131" stroke-linecap="round" stroke-width="2"/>
      </g>
    </g>
    <g id="Group_506" data-name="Group 506" transform="translate(69.381 803.208)">
      <rect id="Rectangle_686-2" data-name="Rectangle 686" width="21.557" height="3" rx="1.5" transform="translate(0 0.292)" fill="#d3d3d3"/>
      <g id="Group_8-2" data-name="Group 8" transform="translate(0.471)">
        <line id="Line_1-2" data-name="Line 1" x2="18.557" fill="none" stroke="#313131" stroke-linecap="round" stroke-width="2"/>
      </g>
    </g>
  </g>
</svg>
