<svg xmlns="http://www.w3.org/2000/svg" width="22.636" height="22.301" viewBox="0 0 22.636 22.301"><g data-name="Group 393"><g data-name="Group 391" transform="translate(-284.743 -26.698)" fill="#313131"><path data-name="Path 166" d="M296.71710678 27.73543773a.89.89 0 010 1.31946126l-9.89949494 9.24047141a1.051 1.051 0 01-1.41421356 0 .89.89 0 010-1.32087546l9.89949494-9.2390572a1.051 1.051 0 011.41421356 0z"/><path data-name="Path 165" d="M306.71789322 38.29743773a1.051 1.051 0 01-1.41421356 0l-9.89949494-9.24047141a.89.89 0 010-1.31946126 1.051 1.051 0 011.41421356 0l9.89949494 9.2390572a.89.89 0 010 1.32087547z"/><rect data-name="Rectangle 895" width="2" height="8" rx="1" transform="matrix(0 1 -1 0 300.001 39)"/><rect data-name="Rectangle 896" width="2" height="8" rx="1" transform="rotate(180 148.5 22)"/><path data-name="Subtraction 68" d="M302 49h-12a2 2 0 01-2-2V36a2 2 0 012-2v12.128a1 1 0 001 1h10a1 1 0 001-1V34.046 34a2 2 0 012 2v11a2 2 0 01-2 2z"/></g></g></svg>