<svg xmlns="http://www.w3.org/2000/svg" width="20" height="19.5" viewBox="0 0 20 19.5">
  <path id="Icon_awesome-github" data-name="Icon awesome-github" d="M6.69,16.264c0,.081-.093.145-.21.145-.133.012-.226-.052-.226-.145s.093-.145.21-.145S6.69,16.171,6.69,16.264Zm-1.254-.181c-.028.081.052.173.173.2a.189.189,0,0,0,.25-.081c.024-.081-.052-.173-.173-.21A.207.207,0,0,0,5.435,16.083Zm1.782-.069c-.117.028-.2.1-.185.2s.117.133.238.1.2-.1.185-.185S7.335,16,7.218,16.014ZM9.871.563A9.669,9.669,0,0,0,0,10.4a10.109,10.109,0,0,0,6.835,9.645c.516.093.7-.226.7-.488s-.012-1.629-.012-2.476c0,0-2.823.6-3.415-1.2,0,0-.46-1.173-1.121-1.476,0,0-.923-.633.065-.621A2.128,2.128,0,0,1,4.6,14.825a2.132,2.132,0,0,0,2.94.843,2.241,2.241,0,0,1,.645-1.359c-2.254-.25-4.528-.577-4.528-4.456a3.056,3.056,0,0,1,.952-2.375,3.81,3.81,0,0,1,.1-2.738C5.56,4.478,7.5,5.829,7.5,5.829a9.526,9.526,0,0,1,5.065,0S14.5,4.474,15.347,4.74a3.808,3.808,0,0,1,.1,2.738,3.134,3.134,0,0,1,1.04,2.375c0,3.891-2.375,4.2-4.629,4.456a2.385,2.385,0,0,1,.685,1.871c0,1.359-.012,3.04-.012,3.371,0,.262.185.581.7.488A10.016,10.016,0,0,0,20,10.4,9.887,9.887,0,0,0,9.871.563ZM3.919,14.47c-.052.04-.04.133.028.21s.157.093.21.04.04-.133-.028-.21S3.972,14.417,3.919,14.47Zm-.435-.327c-.028.052.012.117.093.157a.12.12,0,0,0,.173-.028c.028-.052-.012-.117-.093-.157C3.577,14.091,3.512,14.1,3.484,14.143ZM4.79,15.579c-.065.052-.04.173.052.25.093.093.21.1.262.04s.028-.173-.052-.25C4.964,15.526,4.843,15.514,4.79,15.579Zm-.46-.593c-.065.04-.065.145,0,.238s.173.133.226.093a.184.184,0,0,0,0-.25C4.5,14.974,4.4,14.933,4.331,14.986Z" transform="translate(0 -0.563)"/>
</svg>
