<svg xmlns="http://www.w3.org/2000/svg" width="32.211" height="31.651" viewBox="0 0 32.211 31.651"><g data-name="Group 376"><g data-name="Group 358" fill="#fff"><g data-name="Path 116"><path d="M26.95496104 30.65060043H5.27365087c-2.31782007 0-4.2035101-1.8538494-4.2035101-4.1325302V9.99596118l-.01029999-.0712099c-.07944-.54915048-.07949-1.10354043-.00015998-1.6477604.36631-2.51290989 2.31940997-4.35286975 3.45103014-5.22598982 1.73545694-1.3390212 3.61461353-2.04315328 4.5849762-2.05093372 1.68816089.06123853 14.92136573.5406977 16.93515968.59560585.33486366.1729343.64731407.32549703.9512043.47386802 2.08148384 1.0163126 3.13152885 1.528862 4.1940174 5.45937419.05654336.47008466.03156663 1.51037025.00943185 2.43222618-.0132904.55367946-.02702904 1.12620926-.02702904 1.64301967v14.91390896c0 2.2786808-1.88569069 4.13253021-4.20351029 4.13253021zM26.1350529 1.52171516l-.08602142-.010087-.76284027-.870977.74907875-1.00861.7163639.08400362-.61658096 1.80567038z"/><path d="M9.0842583 2.00031853c-.6831646.01537323-2.33776855.5886917-3.962677 1.84242248-.99148369.76499748-2.68642235 2.34812737-3.05145073 4.4476223v18.22770691c0 1.72728157 1.43708992 3.13253021 3.20351982 3.13253021h21.68131065c1.76642037 0 3.20351029-1.40524864 3.20351029-3.1325302V11.6041603c0-.5288086.01388931-1.10743904.02731895-1.6670189.01835633-.76457786.04298973-1.79078483.00461197-2.22193908-.45648765-1.66755104-.93787002-2.74641037-1.510952-3.38856125-.47676849-.53424072-1.06035995-.83321953-2.1361599-1.35849952-.23686408-.11564637-.4946804-.24152565-.76726722-.37965584-2.5774269-.07713127-14.0874691-.49370194-16.69176483-.5881672M9.11192058.00000192s16.5604744.60078811 17.1570301.60078811c.0095749 0 .01495362-.0001545.0161686-.0004673 2.90202522 1.53297234 4.4962101 1.5914154 5.87335014 6.73097802.11763.79578971 0 2.78149032 0 4.27285957v14.91390991c0 2.83462143-2.32968902 5.13253021-5.20350838 5.13253021H5.2736504c-2.87381935 0-5.20351982-2.29790878-5.20351982-5.1325302V8.1327629c.70246887-4.81893158 6.49615097-8.132761 9.04179-8.132761zm17.1722107.5998001c.001194.000206.0015354.00037957.000988.00052071-.00035477-.00018692-.00063515-.00033378-.000988-.0005207zM.07013056 7.33130075v.80146217-.80146217zm0 .80146217v1.93514824c-.09654045-.66739655-.09056091-1.31389618 0-1.93514824z" fill="#313131"/></g><g data-name="Rectangle 825" transform="translate(4.324)" stroke="#313131" stroke-width="2"><rect width="25" height="25" rx="5" stroke="none"/><rect x="1" y="1" width="23" height="23" rx="4" fill="none"/></g></g><g data-name="Group 338" transform="translate(9.592 8.759)" fill="#313131"><rect data-name="Rectangle 827" width="13.687" height="2.139" rx="1.069" transform="translate(.453 4.448)"/><rect data-name="Rectangle 828" width="7.699" height="2.139" rx="1.069" transform="rotate(135 3.16485455 2.19663477)"/></g></g></svg>