<svg xmlns="http://www.w3.org/2000/svg" width="39.603" height="32.996" viewBox="0 0 39.603 32.996"><path d="M12 32.996a7.938 7.938 0 01-5.428-2.123A8.013 8.013 0 010 23.002v-15a8.007 8.007 0 018-8h10a7.983 7.983 0 015.429 2.127 7.992 7.992 0 014.513 2.524A7.945 7.945 0 0130 10.002v2.1h8.451a1.15 1.15 0 011.151 1.151 1.149 1.149 0 01-1.151 1.147H30V25a8.007 8.007 0 01-8 8zm14-9.995a8.013 8.013 0 01-7.757 7.994h3.755a6 6 0 006-6v-10.6h-2zm-24-15v15a6.009 6.009 0 006 6h10a6.009 6.009 0 006-6v-8.6h-8.684l4.872 4.872a1.151 1.151 0 010 1.627 1.148 1.148 0 01-.812.339 1.148 1.148 0 01-.815-.339l-6.857-6.857a1.15 1.15 0 010-1.628l.061-.057a1.868 1.868 0 01.148-.183l6.861-6.861a1.153 1.153 0 011.624 0 1.15 1.15 0 010 1.628l-5.157 5.161h8.76v-4.1a6 6 0 00-6-6h-10A6 6 0 002 8.002zm26 4.1v-2.1a5.958 5.958 0 00-1.075-3.427 5.966 5.966 0 00-1.472-1.479A7.941 7.941 0 0126 8.002v4.1z" data-name="Union 17" fill="#313131"/></svg>