<svg xmlns="http://www.w3.org/2000/svg" width="39.603" height="32.996" viewBox="0 0 39.603 32.996">
    <defs>
        <style>
            .cls-1{fill:#313131}
        </style>
    </defs>
    <path id="Union_17" d="M-15177-5734.006a7.938 7.938 0 0 1-5.428-2.123A8.013 8.013 0 0 1-15189-5744v-15a8.007 8.007 0 0 1 8-8h10a7.983 7.983 0 0 1 5.429 2.127 7.992 7.992 0 0 1 4.513 2.524A7.945 7.945 0 0 1-15159-5757v2.1h8.451a1.15 1.15 0 0 1 1.151 1.151 1.149 1.149 0 0 1-1.151 1.147h-8.451v10.6a8.007 8.007 0 0 1-8 8zm14-9.995a8.013 8.013 0 0 1-7.757 7.994h3.755a6 6 0 0 0 6-6v-10.6h-2zm-24-15v15a6.009 6.009 0 0 0 6 6h10a6.009 6.009 0 0 0 6-6v-8.6h-8.684l4.872 4.872a1.151 1.151 0 0 1 0 1.627 1.148 1.148 0 0 1-.812.339 1.148 1.148 0 0 1-.815-.339l-6.857-6.857a1.15 1.15 0 0 1 0-1.628l.061-.057a1.868 1.868 0 0 1 .148-.183l6.861-6.861a1.153 1.153 0 0 1 1.624 0 1.15 1.15 0 0 1 0 1.628l-5.157 5.161h8.76v-4.1a6 6 0 0 0-6-6h-10A6 6 0 0 0-15187-5759zm26 4.1v-2.1a5.958 5.958 0 0 0-1.075-3.427 5.966 5.966 0 0 0-1.472-1.479 7.941 7.941 0 0 1 .547 2.907v4.1z" class="cls-1" data-name="Union 17" transform="translate(15189 5767.002)"/>
</svg>
