<svg xmlns="http://www.w3.org/2000/svg" width="17.049" height="19.324" viewBox="0 0 17.049 19.324"><g data-name="Path 55" fill="#fff"><path d="M16.249 2.004v15.318c0 .436-.226.825-.604 1.041a1.187 1.187 0 01-1.203-.006l-13.05-7.66A1.189 1.189 0 01.8 9.663c0-.43.222-.817.593-1.035L14.442.968c.375-.22.825-.222 1.203-.006a1.187 1.187 0 01.604 1.042z"/><path d="M1.6 9.663a.382.382 0 00.198.345l13.049 7.659a.382.382 0 00.4.002.382.382 0 00.202-.347V2.004c0-.192-.11-.295-.201-.347a.382.382 0 00-.401.002L1.797 9.318a.382.382 0 00-.197.345m-1.6 0c0-.67.33-1.339.988-1.725L14.037.278c1.332-.781 3.012.181 3.012 1.727v15.317c0 1.546-1.68 2.507-3.012 1.725l-13.05-7.66A1.982 1.982 0 010 9.663z" fill="#2c2c2c"/></g></svg>