<svg xmlns="http://www.w3.org/2000/svg" width="17.049" height="19.324" viewBox="0 0 17.049 19.324">
    <defs>
        <style>
            .cls-1{fill:#fff}.cls-2,.cls-3{stroke:none}.cls-3{fill:#2c2c2c}
        </style>
    </defs>
    <g id="Path_57" class="cls-1" data-name="Path 57">
        <path d="M18.811 18.2H3.493c-.436 0-.825-.226-1.041-.604a1.187 1.187 0 0 1 .006-1.203l7.66-13.05a1.189 1.189 0 0 1 1.034-.592c.43 0 .817.222 1.035.593l7.66 13.049c.22.375.222.825.006 1.203a1.187 1.187 0 0 1-1.042.604z" class="cls-2" transform="rotate(90 10.245 8.755)"/>
        <path d="M11.152 3.551a.382.382 0 0 0-.345.198L3.148 16.798a.382.382 0 0 0-.002.4.382.382 0 0 0 .347.202h15.318c.192 0 .295-.11.347-.201a.382.382 0 0 0-.002-.401l-7.659-13.05a.382.382 0 0 0-.345-.197m0-1.6c.67 0 1.339.33 1.725.988l7.66 13.049C21.318 17.32 20.356 19 18.81 19H3.493c-1.546 0-2.507-1.68-1.725-3.012l7.66-13.05a1.982 1.982 0 0 1 1.724-.987z" class="cls-3" transform="rotate(90 10.245 8.755)"/>
    </g>
</svg>
