<svg xmlns="http://www.w3.org/2000/svg" width="41.125" height="32.996" viewBox="0 0 41.125 32.996">
    <defs>
        <style>
            .cls-1{fill:#313131}
        </style>
    </defs>
    <path id="Union_18" d="M-15177-5734.006a7.938 7.938 0 0 1-5.428-2.123A8.013 8.013 0 0 1-15189-5744v-15a8.007 8.007 0 0 1 8-8h10a7.983 7.983 0 0 1 5.429 2.127 7.992 7.992 0 0 1 4.513 2.524A7.945 7.945 0 0 1-15159-5757v9.812h7.174l-4.871-4.872a1.149 1.149 0 0 1 0-1.627 1.141 1.141 0 0 1 .812-.335 1.146 1.146 0 0 1 .816.335l6.857 6.861a1.147 1.147 0 0 1 0 1.624c-.02.023-.042.042-.062.061a1.105 1.105 0 0 1-.148.183l-6.861 6.858a1.146 1.146 0 0 1-1.624 0 1.15 1.15 0 0 1 0-1.628l5.157-5.157h-7.25v2.882a8.007 8.007 0 0 1-8 8zm14-9.995a8.013 8.013 0 0 1-7.757 7.994h3.755a6 6 0 0 0 6-6v-2.882h-2zm-24-15v15a6.009 6.009 0 0 0 6 6h10a6.009 6.009 0 0 0 6-6v-.888h-7.959a1.153 1.153 0 0 1-1.151-1.151 1.15 1.15 0 0 1 1.151-1.151h7.959V-5759a6 6 0 0 0-6-6h-10a6 6 0 0 0-6 6zm26 11.809V-5757a5.958 5.958 0 0 0-1.075-3.427 5.966 5.966 0 0 0-1.472-1.479 7.941 7.941 0 0 1 .547 2.906v11.809z" class="cls-1" data-name="Union 18" transform="translate(15189 5767.002)"/>
</svg>
