<svg xmlns="http://www.w3.org/2000/svg" width="17.049" height="19.324" viewBox="0 0 17.049 19.324"><g data-name="Path 57" fill="#fff"><path d="M.8 17.321V2.003c0-.436.226-.825.604-1.041a1.187 1.187 0 011.203.006l13.05 7.66a1.189 1.189 0 01.592 1.034c0 .43-.222.817-.593 1.035l-13.049 7.66c-.375.22-.825.222-1.203.006A1.187 1.187 0 01.8 17.321z"/><path d="M15.449 9.662a.382.382 0 00-.198-.345L2.202 1.658a.382.382 0 00-.4-.002.382.382 0 00-.202.347v15.318c0 .192.11.295.201.347a.382.382 0 00.401-.002l13.05-7.659a.382.382 0 00.197-.345m1.6 0c0 .67-.33 1.339-.988 1.725l-13.049 7.66C1.68 19.828 0 18.866 0 17.32V2.003C0 .457 1.68-.504 3.012.278l13.05 7.66a1.982 1.982 0 01.987 1.724z" fill="#2c2c2c"/></g></svg>