<svg xmlns="http://www.w3.org/2000/svg" width="41.125" height="32.996" viewBox="0 0 41.125 32.996"><path d="M12 32.996a7.938 7.938 0 01-5.428-2.123A8.013 8.013 0 010 23.002v-15a8.007 8.007 0 018-8h10a7.983 7.983 0 015.429 2.127 7.992 7.992 0 014.513 2.524A7.945 7.945 0 0130 10.002v9.812h7.174l-4.871-4.872a1.149 1.149 0 010-1.627 1.141 1.141 0 01.812-.335 1.146 1.146 0 01.816.335l6.857 6.861a1.147 1.147 0 010 1.624c-.02.023-.042.042-.062.061a1.105 1.105 0 01-.148.183l-6.861 6.858a1.146 1.146 0 01-1.624 0 1.15 1.15 0 010-1.628l5.157-5.157H30v2.882a8.007 8.007 0 01-8 8zm14-9.995a8.013 8.013 0 01-7.757 7.994h3.755a6 6 0 006-6v-2.882h-2zm-24-15v15a6.009 6.009 0 006 6h10a6.009 6.009 0 006-6v-.888h-7.959a1.153 1.153 0 01-1.151-1.151 1.15 1.15 0 011.151-1.151H24V8.002a6 6 0 00-6-6H8a6 6 0 00-6 6zM28 19.81v-9.808a5.958 5.958 0 00-1.075-3.427 5.966 5.966 0 00-1.472-1.479A7.941 7.941 0 0126 8.002v11.809z" data-name="Union 18" fill="#313131"/></svg>