<svg xmlns="http://www.w3.org/2000/svg" width="32.503" height="33.072" viewBox="0 0 32.503 33.072">
    <defs>
        <style>
            .cls-1{isolation:isolate}.cls-2{fill:#313131}
        </style>
    </defs>
    <g id="Group_201" class="cls-1" data-name="Group 201" transform="translate(-106.898 -195)">
        <path id="Union_14" d="M-15187.237-5735.98l-.713-.706a7 7 0 0 1 0-9.9l2.123-2.124a3.977 3.977 0 0 1 2.329-1.14v-9.15a8.007 8.007 0 0 1 8-8h10a8.01 8.01 0 0 1 8 8v15a8.01 8.01 0 0 1-8 8h-10a8 8 0 0 1-1.651-.171l-.194.194a6.962 6.962 0 0 1-4.948 2.051 6.96 6.96 0 0 1-4.946-2.054zm21.737-2.021a6.007 6.007 0 0 0 6-6v-15a6.007 6.007 0 0 0-6-6h-10a6 6 0 0 0-6 6v7.375l4.037-4.04a1.758 1.758 0 0 1 2.475 0 1.757 1.757 0 0 1 0 2.478l-4.834 4.834 4.6 4.6a4 4 0 0 1 0 5.654l-.1.1z" class="cls-2" data-name="Union 14" transform="translate(15296.898 5962.001)"/>
    </g>
</svg>
