<svg xmlns="http://www.w3.org/2000/svg" width="32.503" height="33.072" viewBox="0 0 32.503 33.072">
    <defs>
        <style>
            .cls-1{fill:#313131}.cls-2{isolation:isolate}
        </style>
    </defs>
    <g id="Group_503" data-name="Group 503" transform="translate(-172 -408)">
        <path id="Path_379" d="M9.457 5.43c.045-.181.045-.317.091-.5v-.088c0-.362-.272-.588-.724-.679h-.136a.659.659 0 0 0-.724.588c0 .091-.045.226-.045.362 0 .045-.045.136-.045.181a10.113 10.113 0 0 0-2.489.317V3.756a54.7 54.7 0 0 0 5.973-.456.725.725 0 0 0 .724-.769V2.4a.69.69 0 0 0-.769-.679h-.181c-1.539.226-3.3.362-5.656.5q.068-.747.136-1.358V.724C5.656.272 5.43.045 4.978 0h-.091a.692.692 0 0 0-.769.679c-.045.453-.091 1-.091 1.539h-2.85a.736.736 0 0 0-.769.769.782.782 0 0 0 .815.815c.5 0 1.041 0 1.539-.045h1.175c-.045.588-.045 1.177-.045 1.765v.588A6.01 6.01 0 0 0 0 11.313a2.423 2.423 0 0 0 2.4 2.715 4.943 4.943 0 0 0 2.9-1.041c0 .045.045.045.045.091.045.045.045.091.091.181a.712.712 0 0 0 .86.317l.136-.045a.821.821 0 0 0 .453-.679.852.852 0 0 0-.091-.362c-.091-.181-.136-.362-.226-.543a12.628 12.628 0 0 0 2.618-5.024 2.729 2.729 0 0 1 2.624 2.851c0 1.991-1.72 3.3-4.389 3.439a.736.736 0 0 0-.769.769v.045a.76.76 0 0 0 .815.815h.045c3.53-.136 6.018-2.217 6.018-5.023-.045-2.398-1.539-3.936-4.073-4.389zm-4.8 6.018a3.094 3.094 0 0 1-2.127.95c-.634 0-.95-.407-.95-1.177a4.337 4.337 0 0 1 2.4-3.575 19.207 19.207 0 0 0 .681 3.802zM7.6 6.652a11.644 11.644 0 0 1-1.72 3.53 16.8 16.8 0 0 1-.407-3.168A6.021 6.021 0 0 1 7.6 6.652z" class="cls-1" data-name="Path 379" transform="translate(185 412)"/>
        <g id="Group_201" class="cls-2" data-name="Group 201" transform="translate(65.102 213)">
            <path id="Union_14" d="M-15187.237-5735.98l-.713-.706a7 7 0 0 1 0-9.9l2.123-2.124a3.977 3.977 0 0 1 2.329-1.14v-9.15a8.007 8.007 0 0 1 8-8h10a8.01 8.01 0 0 1 8 8v15a8.01 8.01 0 0 1-8 8h-10a8 8 0 0 1-1.651-.171l-.194.194a6.962 6.962 0 0 1-4.948 2.051 6.96 6.96 0 0 1-4.946-2.054zm21.737-2.021a6.007 6.007 0 0 0 6-6v-15a6.007 6.007 0 0 0-6-6h-10a6 6 0 0 0-6 6v7.375l4.037-4.04a1.758 1.758 0 0 1 2.475 0 1.757 1.757 0 0 1 0 2.478l-4.834 4.834 4.6 4.6a4 4 0 0 1 0 5.654l-.1.1z" class="cls-1" data-name="Union 14" transform="translate(15296.898 5962.001)"/>
        </g>
    </g>
</svg>
