<svg xmlns="http://www.w3.org/2000/svg" width="32.503" height="33.072" viewBox="0 0 32.503 33.072"><g data-name="Group 201"><path d="M2.763 31.021l-.713-.706a7 7 0 010-9.9l2.123-2.124a3.977 3.977 0 012.329-1.14v-9.15a8.007 8.007 0 018-8h10a8.01 8.01 0 018 8v15a8.01 8.01 0 01-8 8h-10a8 8 0 01-1.651-.171l-.194.194a6.962 6.962 0 01-4.948 2.051 6.96 6.96 0 01-4.946-2.054zM24.5 29a6.007 6.007 0 006-6V8a6.007 6.007 0 00-6-6h-10a6 6 0 00-6 6v7.375l4.037-4.04a1.758 1.758 0 012.475 0 1.757 1.757 0 010 2.478l-4.834 4.834 4.6 4.6a4 4 0 010 5.654l-.1.1z" data-name="Union 14" fill="#313131"/></g></svg>