<svg xmlns="http://www.w3.org/2000/svg" viewBox="0 0 50 44.7"><path d="M7 1.608h38c2.8.1 5.1 2.4 5 5.3v32.6c.1 2.8-2.2 5.2-5 5.3H7c-2.8-.1-5.1-2.4-5-5.3v-32.6c-.1-2.9 2.2-5.2 5-5.3z" fill="#ffc400"/><path d="M23.9 17.908c-2.3.1-5.1.2-8.5.3-.1.6-.1 1.2-.1 1.8.8-.2 1.6-.2 2.5-.2h.7c.1-.3.2-.6.3-1l1.9.4c-.1.3-.2.6-.2.9.6.2 1.2.5 1.8.9 1.4 1 2.1 2.2 2.1 3.9 0 1.7-.6 3.1-1.8 4-1.1.9-2.8 1.4-5.1 1.7l-.7-1.7c1.8-.2 3.2-.6 4.1-1.2 1-.7 1.5-1.6 1.5-2.8 0-1.1-.5-2-1.6-2.6-.3-.2-.6-.3-.9-.4-.6 1.6-1.3 3-2 4.2-1.7 2.5-3.8 3.8-6.3 3.8-1 0-1.7-.3-2.3-.9-.6-.6-.9-1.5-.9-2.5 0-1.8.9-3.3 2.7-4.7.7-.5 1.4-.9 2.3-1.2 0-.8.1-1.6.2-2.3H8.8v-1.8h5c.1-.8.2-1.5.4-2.3l1.9.4-.3 1.8c3.3-.1 6-.2 8.2-.3l-.1 1.8zm-11.5 5.2c-1.4 1-2.1 2.1-2.1 3.3 0 1.1.4 1.6 1.3 1.6.8 0 1.5-.2 2.2-.6-.3-1.5-.5-3.1-.5-4.8-.4.1-.7.3-.9.5zm5.3-1.6c-.9 0-1.8.1-2.6.3 0 1.5.1 2.8.3 4.1l.6-.9c.7-1 1.3-2.2 1.8-3.5h-.1zM37.3 29.508c-.1-.2-.2-.5-.3-.9-.6.7-1.5 1.1-2.5 1.1s-1.8-.3-2.4-.9-1-1.3-1-2.2c0-1.1.4-1.9 1.2-2.4.8-.6 1.9-.9 3.4-.9H37v-.6c0-.5-.1-.8-.4-1.1-.2-.3-.6-.4-1.1-.4-.5 0-.8.1-1.1.3-.3.2-.4.5-.4.9h-2.7c0-.6.2-1.1.5-1.6.4-.5.9-.9 1.5-1.2.7-.3 1.4-.4 2.2-.4 1.2 0 2.2.3 2.9.9.7.6 1.1 1.5 1.1 2.6v4.4c0 1 .1 1.7.4 2.2v.2h-2.6zm-2.2-1.9c.4 0 .8-.1 1.1-.3.3-.2.6-.4.7-.7v-1.7h-1c-1.3 0-2.1.5-2.1 1.4v.2c0 .3.1.6.4.8.2.2.5.3.9.3z" fill="#313131"/><path d="M43 41.4H5c-2.2 0-4-1.9-4-4.2v-32C1 2.9 2.8 1 5 1h38c2.2 0 4 1.9 4 4.2v32c0 2.3-1.8 4.2-4 4.2z" fill="#e0e0e0"/><path d="M5 2C3.3 2 2 3.4 2 5.2v32c0 1.8 1.3 3.2 3 3.2h38c1.7 0 3-1.4 3-3.2v-32C46 3.4 44.7 2 43 2H5m0-2h38c2.8 0 5 2.3 5 5.2v32c0 2.9-2.2 5.2-5 5.2H5c-2.8 0-5-2.3-5-5.2v-32C0 2.3 2.2 0 5 0z" fill="#313131"/><path fill="#ffc400" d="M46.9 11.4h2v6h-2z"/><path fill="#e0e0e0" d="M44.9 11.4h2v6h-2z"/><path d="M46.9 10.4c.6 0 1 .4 1 1s-.4 1-1 1-1-.4-1-1 .5-1 1-1zM46.9 16.4c.6 0 1 .4 1 1s-.4 1-1 1-1-.4-1-1 .5-1 1-1z" fill="#313131"/><path d="M4.9 2.4h36c1.1 0 2 .9 2 2v28c0 1.7-1.3 3-3 3h-35c-1.7 0-3-1.3-3-3v-27c0-1.7 1.4-3 3-3z" fill="#fff"/><g><path d="M22.865 15.784c-2.3.1-5.1.2-8.5.3-.1.6-.1 1.2-.1 1.8.8-.2 1.6-.2 2.5-.2h.7c.1-.3.2-.6.3-1l1.9.4c-.1.3-.2.6-.2.9.6.2 1.2.5 1.8.9 1.4 1 2.1 2.2 2.1 3.9 0 1.7-.6 3.1-1.8 4-1.1.9-2.8 1.4-5.1 1.7l-.7-1.7c1.8-.2 3.2-.6 4.1-1.2 1-.7 1.5-1.6 1.5-2.8 0-1.1-.5-2-1.6-2.6-.3-.2-.6-.3-.9-.4-.6 1.6-1.3 3-2 4.2-1.7 2.5-3.8 3.8-6.3 3.8-1 0-1.7-.3-2.3-.9-.6-.6-.9-1.5-.9-2.5 0-1.8.9-3.3 2.7-4.7.7-.5 1.4-.9 2.3-1.2 0-.8.1-1.6.2-2.3h-4.8v-1.8h5c-.1-.8 0-1.6.2-2.4l1.9.4c-.1.7-.2 1.3-.3 1.9 3.3-.1 6-.2 8.2-.3l.1 1.8zm-11.5 5.2c-1.4 1-2.1 2.1-2.1 3.3 0 1.1.4 1.6 1.3 1.6.8 0 1.5-.2 2.2-.6-.3-1.5-.5-3.1-.5-4.8-.4.2-.6.3-.9.5zm5.4-1.5c-.9 0-1.8.1-2.6.3 0 1.5.1 2.8.3 4.1l.6-.9c.7-1 1.3-2.2 1.8-3.5h-.1zM36.365 27.384c-.1-.2-.2-.5-.3-.9-.6.7-1.5 1.1-2.5 1.1s-1.8-.3-2.4-.9-1-1.3-1-2.2c0-1.1.4-1.9 1.2-2.4.8-.6 1.9-.9 3.4-.9h1.2v-.6c0-.5-.1-.8-.4-1.1-.2-.3-.6-.4-1.1-.4-.5 0-.8.1-1.1.3-.3.2-.4.5-.4.9h-2.7c0-.6.2-1.1.5-1.6.4-.5.9-.9 1.5-1.2.7-.3 1.4-.4 2.2-.4 1.2 0 2.2.3 2.9.9.7.6 1.1 1.5 1.1 2.6v4.4c0 1 .1 1.7.4 2.2v.2h-2.5zm-2.2-1.9c.4 0 .8-.1 1.1-.3.3-.2.6-.4.7-.7v-1.7h-1c-1.3 0-2.1.5-2.1 1.4v.2c0 .3.1.6.4.8.1.2.5.3.9.3z" fill="#d3d3d3"/><path d="M21.865 14.784c-2.3.1-5.1.2-8.5.3-.1.6-.1 1.2-.1 1.8.8-.2 1.6-.2 2.5-.2h.7c.1-.3.2-.6.3-1l1.9.4c-.1.3-.2.6-.2.9.6.2 1.2.5 1.8.9 1.4 1 2.1 2.2 2.1 3.9 0 1.7-.6 3.1-1.8 4-1.1.9-2.8 1.4-5.1 1.7l-.7-1.7c1.8-.2 3.2-.6 4.1-1.2 1-.7 1.5-1.6 1.5-2.8 0-1.1-.5-2-1.6-2.6-.3-.2-.6-.3-.9-.4-.6 1.6-1.3 3-2 4.2-1.7 2.5-3.8 3.8-6.3 3.8-1 0-1.7-.3-2.3-.9-.6-.6-.9-1.5-.9-2.5 0-1.8.9-3.3 2.7-4.7.7-.5 1.4-.9 2.3-1.2 0-.8.1-1.6.2-2.3h-4.8v-1.8h5c-.1-.8 0-1.6.2-2.4l1.9.4c-.1.7-.2 1.3-.3 1.9 3.3-.1 6-.2 8.2-.3l.1 1.8zm-11.5 5.2c-1.4 1-2.1 2.1-2.1 3.3 0 1.1.4 1.6 1.3 1.6.8 0 1.5-.2 2.2-.6-.3-1.5-.5-3.1-.5-4.8-.4.2-.6.3-.9.5zm5.4-1.5c-.9 0-1.8.1-2.6.3 0 1.5.1 2.8.3 4.1l.6-.9c.7-1 1.3-2.2 1.8-3.5h-.1zM35.365 26.384c-.1-.2-.2-.5-.3-.9-.6.7-1.5 1.1-2.5 1.1s-1.8-.3-2.4-.9-1-1.3-1-2.2c0-1.1.4-1.9 1.2-2.4.8-.6 1.9-.9 3.4-.9h1.2v-.6c0-.5-.1-.8-.4-1.1-.2-.3-.6-.4-1.1-.4-.5 0-.8.1-1.1.3-.3.2-.4.5-.4.9h-2.7c0-.6.2-1.1.5-1.6.4-.5.9-.9 1.5-1.2.7-.3 1.4-.4 2.2-.4 1.2 0 2.2.3 2.9.9.7.6 1.1 1.5 1.1 2.6v4.4c0 1 .1 1.7.4 2.2v.2h-2.5zm-2.2-1.9c.4 0 .8-.1 1.1-.3.3-.2.6-.4.7-.7v-1.7h-1c-1.3 0-2.1.5-2.1 1.4v.2c0 .3.1.6.4.8.1.2.5.3.9.3z" fill="#313131"/></g></svg>
