<svg data-name="Group 320" xmlns="http://www.w3.org/2000/svg" width="50" height="44.743" viewBox="0 0 50 44.743"><g data-name="Group 11"><path data-name="Path 9" d="M7 1.608h38a5.15 5.15 0 015 5.288v32.558a5.15 5.15 0 01-5 5.288H7a5.15 5.15 0 01-5-5.288V6.896a5.15 5.15 0 015-5.288z" fill="#ffc400"/><text data-name="あ a" transform="translate(6.765 29.461)" fill="#313131" font-size="19" font-family="PingFangTC-Semibold, PingFang TC" font-weight="600"><tspan x="0" y="0">あ</tspan><tspan y="0" font-family="Roboto-Bold, Roboto" font-weight="700"> a</tspan></text></g><g data-name="Path 9" fill="#e0e0e0"><path d="M43 41.35168076H5c-2.20561004 0-4-1.88066864-4-4.19231797V5.19232225c0-2.31165003 1.79438996-4.19231999 4-4.19231999h38c2.20560837 0 4 1.88066996 4 4.19232v31.96704053c0 2.31164933-1.79439163 4.19231797-4 4.19231797z"/><path d="M5 2.00000381c-1.65420914 0-3 1.43206788-3 3.19231797v31.96704101c0 1.7602501 1.34579086 3.19231797 3 3.19231797h38c1.65420914 0 3-1.43206788 3-3.19231797V5.19232178c0-1.7602501-1.34579086-3.19231797-3-3.19231797H5m0-2h38c2.7614212 0 5 2.32468033 5 5.19231797v31.96704101c0 2.86763764-2.2385788 5.19231797-5 5.19231797H5c-2.76142883 0-5-2.32468033-5-5.19231797V5.19232178C0 2.32468414 2.23857117.0000038 5 .0000038z" fill="#313131"/></g><path data-name="Rectangle 670" fill="#ffc400" d="M46.934 11.352h2v6h-2z"/><path data-name="Rectangle 671" fill="#e0e0e0" d="M44.934 11.352h2v6h-2z"/><rect data-name="Rectangle 672" width="2" height="2" rx="1" transform="translate(45.934 10.352)" fill="#313131"/><rect data-name="Rectangle 673" width="2" height="2" rx="1" transform="translate(45.934 16.352)" fill="#313131"/><path data-name="Rectangle 674" d="M4.934 2.352h36a2 2 0 012 2v28a3 3 0 01-3 3h-35a3 3 0 01-3-3v-27a3 3 0 013-3z" fill="#fff"/><g data-name="Group 297" font-size="19" font-family="PingFangTC-Semibold, PingFang TC" font-weight="600"><text data-name="あ a" transform="translate(5.765 27.384)" fill="#d3d3d3"><tspan x="0" y="0">あ</tspan><tspan y="0" font-family="Roboto-Bold, Roboto" font-weight="700"> a</tspan></text><text data-name="あ a" transform="translate(4.765 26.384)" fill="#313131"><tspan x="0" y="0">あ</tspan><tspan y="0" font-family="Roboto-Bold, Roboto" font-weight="700"> a</tspan></text></g></svg>